<svg xmlns="http://www.w3.org/2000/svg" xmlns:v="https://svgstorm.com"
viewBox = "0 0 128 128"
width="128"
height="128">
<g fill="None" fill-opacity="0.0" stroke="#000000" stroke-opacity="0.00" stroke-width="0.3"><path d="
M 0.00 128.00 
L 128.00 128.00
L 128.00 0.00
L 0.00 0.00
L 0.00 128.00
M 71.00 18.00 
C 78.31 20.56 83.36 28.31 83.00 36.00
C 81.67 36.00 80.33 36.00 79.00 36.00
C 78.29 36.71 78.00 34.00 78.00 34.00
C 77.22 29.90 75.81 26.34 72.00 24.00
C 67.40 21.18 61.58 21.19 57.00 24.00
C 50.96 27.70 53.14 36.46 46.00 36.00
C 45.53 28.09 50.83 20.85 58.00 18.00
C 61.87 16.64 67.10 16.63 71.00 18.00
M 55.00 44.00 
C 58.10 54.20 47.35 78.37 64.00 79.00 C 80.66 79.63 71.89 54.37 74.00 44.00
C 85.30 44.55 78.10 60.33 80.00 69.00 C 81.90 77.67 72.50 84.70 64.78 84.78 C 57.06 84.86 47.44 78.74 49.00 70.00 C 50.56 61.25 43.85 44.66 55.00 44.00
M 59.00 106.00 
C 62.67 107.37 66.34 107.37 70.00 106.00
C 75.02 104.12 77.08 99.84 78.00 95.00
C 77.97 95.17 78.17 92.17 79.00 93.00
C 79.96 92.40 81.96 93.46 83.00 93.00
C 83.39 100.41 78.47 108.75 71.00 110.00
C 66.84 111.76 62.80 112.68 58.00 111.00
C 50.69 108.44 45.64 100.69 46.00 93.00
C 54.02 91.46 50.40 105.09 59.00 106.00 Z"/>
</g>
<g fill="None" fill-opacity="0.0" stroke="#347BB6" stroke-opacity="0.81" stroke-width="0.3"><path d="
M 58.00 18.00 
C 58.21 20.20 58.04 22.12 57.00 24.00
C 61.58 21.19 67.40 21.18 72.00 24.00
C 70.95 22.12 70.82 20.20 71.00 18.00
C 67.10 16.63 61.87 16.64 58.00 18.00 Z"/>
</g>
<g fill="None" fill-opacity="0.0" stroke="#1C4A76" stroke-opacity="0.80" stroke-width="0.3"><path d="
M 57.00 24.00 
C 58.04 22.12 58.21 20.20 58.00 18.00
C 50.83 20.85 45.53 28.09 46.00 36.00
C 53.14 36.46 50.96 27.70 57.00 24.00 Z"/>
</g>
<g fill="None" fill-opacity="0.0" stroke="#1B4975" stroke-opacity="0.82" stroke-width="0.3"><path d="
M 72.00 24.00 
C 75.81 26.34 77.22 29.90 78.00 34.00
C 78.07 34.21 79.75 35.25 79.00 36.00
C 80.33 36.00 81.67 36.00 83.00 36.00
C 83.36 28.31 78.31 20.56 71.00 18.00
C 70.82 20.20 70.95 22.12 72.00 24.00 Z"/>
</g>
<g fill="None" fill-opacity="0.0" stroke="#3B71B2" stroke-opacity="0.13" stroke-width="0.3"><path d="
M 79.00 36.00 
C 79.75 35.25 78.07 34.21 78.00 34.00
C 78.00 34.00 78.29 36.71 79.00 36.00 Z"/>
</g>
<g fill="None" fill-opacity="0.0" stroke="#6998FC" stroke-opacity="0.82" stroke-width="0.3"><path d="
M 55.00 44.00 
C 43.85 44.66 50.56 61.25 49.00 70.00 C 47.44 78.74 57.06 84.86 64.78 84.78 C 72.50 84.70 81.90 77.67 80.00 69.00 C 78.10 60.33 85.30 44.55 74.00 44.00
C 71.89 54.37 80.66 79.63 64.00 79.00 C 47.35 78.37 58.10 54.20 55.00 44.00 Z"/>
</g>
<g fill="None" fill-opacity="0.0" stroke="#1C4A77" stroke-opacity="0.80" stroke-width="0.3"><path d="
M 58.00 111.00 
C 57.77 109.17 58.07 107.53 59.00 106.00
C 50.40 105.09 54.02 91.46 46.00 93.00
C 45.64 100.69 50.69 108.44 58.00 111.00 Z"/>
</g>
<g fill="None" fill-opacity="0.0" stroke="#3B71B2" stroke-opacity="0.13" stroke-width="0.3"><path d="
M 78.00 95.00 
C 78.07 94.79 79.75 93.75 79.00 93.00
C 78.17 92.17 77.97 95.17 78.00 95.00 Z"/>
</g>
<g fill="None" fill-opacity="0.0" stroke="#1C4A76" stroke-opacity="0.82" stroke-width="0.3"><path d="
M 78.00 95.00 
C 77.08 99.84 75.02 104.12 70.00 106.00
C 70.69 107.07 71.43 108.66 71.00 110.00
C 78.47 108.75 83.39 100.41 83.00 93.00
C 81.96 93.46 79.96 92.40 79.00 93.00
C 79.75 93.75 78.07 94.79 78.00 95.00 Z"/>
</g>
<g fill="None" fill-opacity="0.0" stroke="#347CB6" stroke-opacity="0.83" stroke-width="0.3"><path d="
M 58.00 111.00 
C 62.80 112.68 66.84 111.76 71.00 110.00
C 71.43 108.66 70.69 107.07 70.00 106.00
C 66.34 107.37 62.67 107.37 59.00 106.00
C 58.07 107.53 57.77 109.17 58.00 111.00 Z"/>
</g>
<g fill="#000000" fill-opacity="0.00" stroke="None"><path d="
M 0.00 128.00 
L 128.00 128.00
L 128.00 0.00
L 0.00 0.00
L 0.00 128.00
M 71.00 18.00 
C 78.31 20.56 83.36 28.31 83.00 36.00
C 81.67 36.00 80.33 36.00 79.00 36.00
C 78.29 36.71 78.00 34.00 78.00 34.00
C 77.22 29.90 75.81 26.34 72.00 24.00
C 67.40 21.18 61.58 21.19 57.00 24.00
C 50.96 27.70 53.14 36.46 46.00 36.00
C 45.53 28.09 50.83 20.85 58.00 18.00
C 61.87 16.64 67.10 16.63 71.00 18.00
M 55.00 44.00 
C 58.10 54.20 47.35 78.37 64.00 79.00 C 80.66 79.63 71.89 54.37 74.00 44.00
C 85.30 44.55 78.10 60.33 80.00 69.00 C 81.90 77.67 72.50 84.70 64.78 84.78 C 57.06 84.86 47.44 78.74 49.00 70.00 C 50.56 61.25 43.85 44.66 55.00 44.00
M 59.00 106.00 
C 62.67 107.37 66.34 107.37 70.00 106.00
C 75.02 104.12 77.08 99.84 78.00 95.00
C 77.97 95.17 78.17 92.17 79.00 93.00
C 79.96 92.40 81.96 93.46 83.00 93.00
C 83.39 100.41 78.47 108.75 71.00 110.00
C 66.84 111.76 62.80 112.68 58.00 111.00
C 50.69 108.44 45.64 100.69 46.00 93.00
C 54.02 91.46 50.40 105.09 59.00 106.00 Z"/>
</g>
<g fill="#347BB6" fill-opacity="0.81" stroke="None"><path d="
M 58.00 18.00 
C 58.21 20.20 58.04 22.12 57.00 24.00
C 61.58 21.19 67.40 21.18 72.00 24.00
C 70.95 22.12 70.82 20.20 71.00 18.00
C 67.10 16.63 61.87 16.64 58.00 18.00 Z"/>
</g>
<g fill="#1C4A76" fill-opacity="0.80" stroke="None"><path d="
M 57.00 24.00 
C 58.04 22.12 58.21 20.20 58.00 18.00
C 50.83 20.85 45.53 28.09 46.00 36.00
C 53.14 36.46 50.96 27.70 57.00 24.00 Z"/>
</g>
<g fill="#1B4975" fill-opacity="0.82" stroke="None"><path d="
M 72.00 24.00 
C 75.81 26.34 77.22 29.90 78.00 34.00
C 78.07 34.21 79.75 35.25 79.00 36.00
C 80.33 36.00 81.67 36.00 83.00 36.00
C 83.36 28.31 78.31 20.56 71.00 18.00
C 70.82 20.20 70.95 22.12 72.00 24.00 Z"/>
</g>
<g fill="#3B71B2" fill-opacity="0.13" stroke="None"><path d="
M 79.00 36.00 
C 79.75 35.25 78.07 34.21 78.00 34.00
C 78.00 34.00 78.29 36.71 79.00 36.00 Z"/>
</g>
<g fill="#6998FC" fill-opacity="0.82" stroke="None"><path d="
M 55.00 44.00 
C 43.85 44.66 50.56 61.25 49.00 70.00 C 47.44 78.74 57.06 84.86 64.78 84.78 C 72.50 84.70 81.90 77.67 80.00 69.00 C 78.10 60.33 85.30 44.55 74.00 44.00
C 71.89 54.37 80.66 79.63 64.00 79.00 C 47.35 78.37 58.10 54.20 55.00 44.00 Z"/>
</g>
<g fill="#1C4A77" fill-opacity="0.80" stroke="None"><path d="
M 58.00 111.00 
C 57.77 109.17 58.07 107.53 59.00 106.00
C 50.40 105.09 54.02 91.46 46.00 93.00
C 45.64 100.69 50.69 108.44 58.00 111.00 Z"/>
</g>
<g fill="#3B71B2" fill-opacity="0.13" stroke="None"><path d="
M 78.00 95.00 
C 78.07 94.79 79.75 93.75 79.00 93.00
C 78.17 92.17 77.97 95.17 78.00 95.00 Z"/>
</g>
<g fill="#1C4A76" fill-opacity="0.82" stroke="None"><path d="
M 78.00 95.00 
C 77.08 99.84 75.02 104.12 70.00 106.00
C 70.69 107.07 71.43 108.66 71.00 110.00
C 78.47 108.75 83.39 100.41 83.00 93.00
C 81.96 93.46 79.96 92.40 79.00 93.00
C 79.75 93.75 78.07 94.79 78.00 95.00 Z"/>
</g>
<g fill="#347CB6" fill-opacity="0.83" stroke="None"><path d="
M 58.00 111.00 
C 62.80 112.68 66.84 111.76 71.00 110.00
C 71.43 108.66 70.69 107.07 70.00 106.00
C 66.34 107.37 62.67 107.37 59.00 106.00
C 58.07 107.53 57.77 109.17 58.00 111.00 Z"/>
</g>
</svg>